<?xml version="1.0" encoding="UTF-8"?>
<svg width="110px" height="110px" viewBox="0 0 110 110" version="1.1" xmlns="http://www.w3.org/2000/svg" xmlns:xlink="http://www.w3.org/1999/xlink">
    <title>Ovens</title>
    <g id="01_Homepage" stroke="none" stroke-width="1" fill="none" fill-rule="evenodd">
        <g id="Ovens">
            <rect id="Rectangle-Copy-4" x="0" y="0" width="110" height="110"></rect>
            <g id="ICO-/-ovens" opacity="0.9" transform="translate(20.000000, 20.000000)" fill="#011E41">
                <g>
                    <path d="M0.0724586777,69.8915289 L69.9275413,69.8915289 L69.9275413,0.108471074 L0.0724586777,0.108471074 L0.0724586777,69.8915289 Z M2.24188017,67.7221074 L67.7581198,67.7221074 L67.7581198,58.754876 L2.24188017,58.754876 L2.24188017,67.7221074 Z M67.7581198,2.27789256 L67.7581198,58.0317355 L63.9983678,58.0317355 L63.9983678,21.5858884 L6.00235537,21.5858884 L6.00235537,58.0317355 L2.24188017,58.0317355 L2.24188017,2.27789256 L67.7581198,2.27789256 Z M62.6239669,23.1404959 L62.6239669,56.9834711 L7.23140496,56.9834711 L7.23140496,23.1404959 L62.6239669,23.1404959 Z" id="Fill-1"></path>
                    <polygon id="Fill-2" points="6.36349174 17.8904959 63.6363636 17.8904959 63.6363636 15.7210744 6.36349174 15.7210744"></polygon>
                    <path d="M21.6219008,11.910124 L48.3780992,11.910124 L48.3780992,6.125 L21.6219008,6.125 L21.6219008,11.910124 Z M22.3450413,11.1869835 L47.6549587,11.1869835 L47.6549587,6.8481405 L22.3450413,6.8481405 L22.3450413,11.1869835 Z" id="Fill-3"></path>
                </g>
            </g>
        </g>
    </g>
</svg>